<svg width="25" height="24" viewBox="0 0 25 24" fill="none" xmlns="http://www.w3.org/2000/svg">
<path d="M20.4191 12.9999C20.1991 12.9999 19.9691 12.9299 19.7491 12.8799C19.3036 12.7817 18.8658 12.6514 18.4391 12.4899C17.9752 12.3211 17.4653 12.3299 17.0074 12.5145C16.5496 12.6991 16.1762 13.0465 15.9591 13.4899L15.7391 13.9399C14.7651 13.398 13.8701 12.7251 13.0791 11.9399C12.2939 11.1489 11.6209 10.2539 11.0791 9.27987L11.4991 8.99987C11.9425 8.78279 12.2899 8.4094 12.4745 7.95156C12.6591 7.49372 12.6679 6.98378 12.4991 6.51987C12.3403 6.09229 12.21 5.65467 12.1091 5.20987C12.0591 4.98987 12.0191 4.75987 11.9891 4.52987C11.8677 3.82549 11.4987 3.18761 10.9487 2.73111C10.3987 2.2746 9.7038 2.02948 8.98911 2.03987H5.98911C5.55814 2.03582 5.13136 2.12468 4.73781 2.3004C4.34427 2.47612 3.99321 2.73456 3.70854 3.05815C3.42386 3.38174 3.21224 3.76286 3.08809 4.17558C2.96395 4.5883 2.93018 5.02293 2.9891 5.44987C3.52184 9.63925 5.43513 13.5317 8.42676 16.5125C11.4184 19.4933 15.3178 21.3924 19.5091 21.9099H19.8891C20.6265 21.911 21.3385 21.6404 21.8891 21.1499C22.2055 20.8669 22.4582 20.52 22.6306 20.1322C22.803 19.7443 22.8911 19.3243 22.8891 18.8999V15.8999C22.8769 15.2053 22.6239 14.5364 22.1734 14.0075C21.723 13.4786 21.1029 13.1225 20.4191 12.9999ZM20.9191 18.9999C20.9189 19.1419 20.8885 19.2822 20.8299 19.4115C20.7713 19.5408 20.6858 19.6562 20.5791 19.7499C20.4674 19.8463 20.3367 19.9184 20.1955 19.9615C20.0543 20.0045 19.9057 20.0176 19.7591 19.9999C16.014 19.5197 12.5353 17.8064 9.87182 15.1302C7.2083 12.454 5.51152 8.96721 5.04911 5.21987C5.03319 5.07339 5.04714 4.9252 5.09011 4.78426C5.13308 4.64332 5.20417 4.51256 5.29911 4.39987C5.39282 4.2932 5.50817 4.20771 5.63748 4.14909C5.7668 4.09046 5.90712 4.06005 6.04911 4.05987H9.04911C9.28165 4.05469 9.50873 4.13075 9.69125 4.27494C9.87377 4.41913 10.0003 4.62244 10.0491 4.84987C10.0891 5.1232 10.1391 5.3932 10.1991 5.65987C10.3146 6.18701 10.4684 6.70505 10.6591 7.20987L9.25911 7.85987C9.1394 7.91479 9.03173 7.99282 8.94226 8.08946C8.8528 8.18611 8.78331 8.29948 8.73778 8.42306C8.69225 8.54664 8.67158 8.678 8.67695 8.80959C8.68233 8.94118 8.71365 9.07041 8.7691 9.18987C10.2083 12.2726 12.6864 14.7507 15.7691 16.1899C16.0126 16.2899 16.2856 16.2899 16.5291 16.1899C16.6538 16.1453 16.7684 16.0763 16.8663 15.9871C16.9641 15.8978 17.0433 15.79 17.0991 15.6699L17.7191 14.2699C18.2361 14.4547 18.7637 14.6084 19.2991 14.7299C19.5658 14.7899 19.8358 14.8399 20.1091 14.8799C20.3365 14.9287 20.5398 15.0552 20.684 15.2377C20.8282 15.4202 20.9043 15.6473 20.8991 15.8799L20.9191 18.9999Z" fill="#94A3B8"/>
</svg>
