<svg width="33" height="32" viewBox="0 0 33 32" fill="none" xmlns="http://www.w3.org/2000/svg">
<path d="M20.3957 7.03223C18.8642 7.03162 17.3582 7.42422 16.0227 8.17229C14.6547 7.40924 13.1104 7.01639 11.5433 7.03273C9.97614 7.04907 8.44049 7.47401 7.08871 8.26542C5.73693 9.05682 4.61599 10.1872 3.8371 11.5443C3.05821 12.9015 2.64844 14.4383 2.64844 16.0023C2.64844 17.5663 3.05821 19.1031 3.8371 20.4602C4.61599 21.8174 5.73693 22.9478 7.08871 23.7392C8.44049 24.5306 9.97614 24.9555 11.5433 24.9719C13.1104 24.9882 14.6547 24.5953 16.0227 23.8323C17.2217 24.4993 18.5579 24.8832 19.9288 24.9548C21.2996 25.0263 22.6687 24.7834 23.9308 24.2448C25.193 23.7063 26.3148 22.8863 27.21 21.8478C28.1052 20.8094 28.7502 19.58 29.0953 18.2542C29.4404 16.9283 29.4766 15.5412 29.2009 14.1992C28.9253 12.8572 28.3453 11.5961 27.5053 10.5126C26.6654 9.42912 25.5878 8.55208 24.3554 7.94878C23.123 7.34548 21.7684 7.03196 20.3957 7.03229V7.03223ZM13.6784 21.9423C13.027 22.1749 12.3414 22.2977 11.6497 22.3057C9.97444 22.3057 8.3678 21.6416 7.18323 20.4595C5.99865 19.2774 5.33316 17.6741 5.33316 16.0023C5.33316 14.3306 5.99865 12.7273 7.18323 11.5452C8.3678 10.363 9.97444 9.69893 11.6497 9.69893C12.3414 9.70691 13.027 9.82972 13.6784 10.0623C12.2156 11.6965 11.407 13.8111 11.407 16.0023C11.407 18.1936 12.2156 20.3081 13.6784 21.9423V21.9423ZM16.0227 20.5325C15.4085 19.9478 14.9196 19.2449 14.5855 18.4662C14.2515 17.6876 14.0792 16.8493 14.0792 16.0023C14.0792 15.1552 14.2515 14.317 14.5855 13.5383C14.9196 12.7597 15.4085 12.0567 16.0227 11.4721C16.6369 12.0567 17.1258 12.7597 17.4599 13.5383C17.794 14.317 17.9662 15.1552 17.9662 16.0023C17.9662 16.8493 17.794 17.6876 17.4599 18.4662C17.1258 19.2449 16.6369 19.9478 16.0227 20.5325ZM20.3957 22.3057C19.704 22.2977 19.0184 22.1749 18.367 21.9423C19.8298 20.3081 20.6384 18.1936 20.6384 16.0023C20.6384 13.8111 19.8298 11.6965 18.367 10.0623C19.0184 9.82972 19.704 9.70691 20.3957 9.69893C22.071 9.69893 23.6776 10.363 24.8622 11.5452C26.0468 12.7273 26.7122 14.3306 26.7122 16.0023C26.7122 17.6741 26.0468 19.2774 24.8622 20.4595C23.6776 21.6416 22.071 22.3057 20.3957 22.3057V22.3057Z" fill="white"/>
</svg>
