<svg width="33" height="32" viewBox="0 0 33 32" fill="none" xmlns="http://www.w3.org/2000/svg">
<g clip-path="url(#clip0_31_1324)">
<path d="M12.1227 10.6667L6.13153 21.3334H2.76988V13.3334C2.7485 12.0707 2.40111 11.4867 1.43377 10.6667H5.4421V17.3334L9.45043 10.6667H12.1227ZM13.4374 10.6667L9.45979 21.3334H12.1227L16.131 10.6667H13.4374ZM28.824 21.3334L28.8655 19.2094L25.8178 19.1667L24.7529 21.3334H22.4668L28.156 10.6667H30.8282L31.5591 21.3334H28.824ZM28.824 13.3747L26.8199 17.3334H28.8027L28.824 13.3747ZM19.5822 12.9721C20.3852 10.9707 22.8115 12.9174 23.1456 13.1121C23.4235 12.6961 23.8978 12.0294 24.1477 11.6681C23.2017 10.5841 19.3804 9.52808 17.439 11.9187C14.1268 16.0027 20.9463 17.1974 19.7492 18.8347C18.9782 19.8894 16.9099 19.7227 15.4068 18.7227C15.1837 19.1401 14.4876 20.3894 14.4876 20.3894C15.7128 21.1974 16.6307 21.3347 17.912 21.3347C19.1934 21.3347 21.7333 21.1334 22.4668 18.6401C23.5357 15.0001 18.6923 15.1947 19.5822 12.9721ZM0.0976562 6.66675H32.1643V8.00008H0.0976562V6.66675ZM0.0976562 24.0001H32.1643V25.3334H0.0976562V24.0001Z" fill="white"/>
</g>
<defs>
<clipPath id="clip0_31_1324">
<rect width="32.0667" height="32" fill="white" transform="translate(0.0976562)"/>
</clipPath>
</defs>
</svg>
